<svg xmlns="http://www.w3.org/2000/svg" viewBox="0 0 210 210" width="210" height="210">
	<defs>
		<clipPath clipPathUnits="userSpaceOnUse" id="cp1">
			<path d="M-489 -738L702 -738L702 946L-489 946Z" />
		</clipPath>
	</defs>
	<style>
		tspan { white-space:pre }
		.shp0 { fill: #31a3c7 } 
		.shp1 { fill: #ff2e17 } 
	</style>
	<g id="Page 1" clip-path="url(#cp1)">
		<path id="Path 1" fill-rule="evenodd" class="shp0" d="M39.15 156.47C38.22 156.6 37.29 156.74 36.37 156.87C40.01 162.99 44.39 168.62 49.4 173.62C64.75 188.97 85.95 198.47 109.37 198.47C132.15 198.47 152.84 189.49 168.07 174.88C167.7 174.04 167.33 173.2 166.95 172.36C152.12 186.91 131.79 195.88 109.37 195.88C86.67 195.88 66.11 186.67 51.23 171.79C46.62 167.19 42.57 162.05 39.15 156.47ZM77.88 34.86C67.12 39.16 57.45 45.61 49.4 53.66C34.04 69.01 24.55 90.22 24.55 113.65C24.55 126.79 27.54 139.24 32.88 150.35C33.75 150.17 34.61 149.97 35.48 149.78C30.14 138.87 27.14 126.61 27.14 113.65C27.14 90.94 36.34 70.38 51.23 55.49C58.92 47.8 68.13 41.63 78.37 37.45C78.2 36.58 78.04 35.72 77.88 34.86ZM84.43 32.55C84.65 33.38 84.87 34.21 85.1 35.05C92.77 32.68 100.93 31.41 109.37 31.41C132.09 31.41 152.65 40.61 167.53 55.49C182.41 70.38 191.61 90.94 191.61 113.65C191.61 133.67 184.45 152.02 172.56 166.29C172.92 167.21 173.27 168.13 173.62 169.03C186.44 154.17 194.2 134.81 194.2 113.65C194.2 90.22 184.7 69.01 169.36 53.66C154.01 38.31 132.8 28.82 109.37 28.82C100.69 28.82 92.31 30.13 84.43 32.55Z" />
		<path id="Path 2" fill-rule="evenodd" class="shp0" d="M184.13 150.96C181.12 156.98 177.41 162.58 173.09 167.66C171.06 162.4 168.8 156.89 166.38 151.44C171.22 151.84 177 151.78 184.13 150.96ZM130.83 142.4C140.42 142.4 145.76 146.68 155.26 149.43C159.75 156.91 163.88 165.44 167.51 173.62C152.48 188.2 131.98 197.18 109.38 197.18C82.39 197.18 58.39 184.37 43.12 164.51C41.19 162.01 39.4 159.39 37.76 156.67C39.38 156.44 41.03 156.19 42.68 155.92C77.93 169.25 98.01 153.35 116.09 145.87C115.79 151.82 116.21 156.76 118.03 161.12C119.86 157.5 121.77 149.87 124.5 143.12C126.6 142.66 128.7 142.4 130.83 142.4ZM161.92 150.9C163.2 153.9 164.45 156.92 165.63 159.93C164 156.77 162.33 153.66 160.61 150.69C161.04 150.76 161.47 150.84 161.92 150.9ZM60.15 105.89C77.71 108.08 105.45 121.35 102.55 130.36C96.54 149.02 23.12 157.77 5.66 157.73C34.74 151.66 125.69 139.05 60.15 105.89ZM110.1 105.41C114.65 105.81 118.01 109.82 117.61 114.37C117.21 118.92 113.19 122.28 108.65 121.88C104.1 121.48 100.74 117.46 101.14 112.92C101.54 108.37 105.55 105.01 110.1 105.41Z" />
		<path id="Path 3" class="shp1" d="M73.96 0.87C74.76 18.31 89.06 97.01 107.99 102.12C117.13 104.59 132.57 64.87 135.71 42.24C121.91 73.33 115.99 77.41 108.54 77.17C90.8 76.6 80.5 24.91 73.96 0.87ZM80.88 93.96L67.83 93.96C66.37 93.96 65.33 93.64 64.7 93.01C64.07 92.38 63.75 91.38 63.75 90L63.75 85.93L77.04 85.93L77.04 79.55L63.75 79.55L63.75 70.34L80.53 70.34C80.53 67.54 80.38 65.65 80.08 64.64C79.79 63.64 78.99 63.14 77.69 63.14L63.75 63.14C59.78 63.14 57.31 63.34 56.34 63.75C55.38 64.17 54.9 65.46 54.9 67.62L54.9 90.71C54.9 94.61 55.67 97.33 57.23 98.86C58.79 100.4 61.57 101.16 65.59 101.16L80.88 101.16L80.88 93.96ZM172.6 96.24L171.83 96.24C169.74 96.24 167.99 95.22 166.57 93.17L158.84 82.37C163.88 76.7 168.11 70.62 171.54 64.12L171.54 63.41L161.97 63.41C159.06 69.28 155.55 74.67 151.46 79.59L147.92 79.59L147.92 63.18C143.9 63.18 141.43 63.38 140.5 63.8C139.58 64.21 139.12 65.5 139.12 67.67L139.12 101.44L147.92 101.44L147.92 87.15L151.99 87.15L158.31 97.25C159.49 99.14 160.6 100.41 161.64 101.06C162.69 101.7 164.11 102.03 165.93 102.03C167.81 102.03 169.4 101.64 170.68 100.85C171.96 100.06 172.6 98.94 172.6 97.48L172.6 96.24Z" />
		<path id="Path 4" fill-rule="evenodd" class="shp0" d="M115.59 26.26C114.79 26.2 114.24 26.01 113.95 25.68C113.65 25.34 113.54 24.79 113.6 24.01L113.95 19.33C113.98 18.9 114.1 18.65 114.29 18.58C114.48 18.51 114.98 18.51 115.8 18.57L115.39 23.97C115.37 24.23 115.41 24.42 115.52 24.54C115.63 24.66 115.81 24.73 116.07 24.75L118.47 24.93L118.35 26.47L115.59 26.26ZM111.16 24.95C110.47 25.76 109.55 26.17 108.42 26.19C107.29 26.21 106.36 25.83 105.63 25.05C104.91 24.27 104.53 23.29 104.51 22.09C104.49 20.93 104.81 20.01 105.48 19.35C106.15 18.68 107.08 18.33 108.28 18.31C109.47 18.29 110.42 18.6 111.11 19.24C111.8 19.89 112.15 20.79 112.18 21.95C112.2 23.15 111.86 24.15 111.16 24.95ZM109.79 20.34C109.44 19.95 108.95 19.77 108.31 19.78C107.67 19.79 107.18 20 106.84 20.4C106.5 20.79 106.34 21.35 106.35 22.06C106.37 22.84 106.56 23.47 106.93 23.96C107.31 24.45 107.79 24.69 108.39 24.68C108.99 24.67 109.47 24.42 109.82 23.91C110.18 23.41 110.35 22.77 110.34 21.99C110.32 21.27 110.14 20.72 109.79 20.34ZM103.16 22.02C103.32 23.2 103.1 24.24 102.5 25.11C101.9 25.99 101.04 26.51 99.92 26.66C98.8 26.81 97.83 26.54 97.02 25.85C96.21 25.16 95.72 24.22 95.56 23.04C95.41 21.89 95.63 20.94 96.21 20.2C96.8 19.46 97.69 19.01 98.87 18.85C100.06 18.69 101.03 18.89 101.79 19.45C102.55 20.01 103.01 20.87 103.16 22.02ZM101.34 22.26C101.24 21.55 101 21.02 100.61 20.68C100.22 20.35 99.7 20.22 99.06 20.31C98.44 20.39 97.98 20.65 97.69 21.09C97.39 21.52 97.29 22.09 97.39 22.79C97.49 23.56 97.76 24.17 98.18 24.62C98.61 25.06 99.12 25.24 99.72 25.16C100.31 25.09 100.76 24.77 101.06 24.24C101.35 23.7 101.44 23.04 101.34 22.26ZM95.81 26.29C95.87 26.58 95.78 26.82 95.55 27.02C95.32 27.22 95.02 27.35 94.65 27.42C94.29 27.48 94 27.46 93.77 27.37C93.54 27.27 93.28 27.06 92.97 26.73L91.38 24.94L90.57 25.08L91.06 27.91L89.31 28.21L88.17 21.51C88.1 21.09 88.15 20.82 88.31 20.7C88.48 20.59 88.97 20.47 89.76 20.33L90.32 23.58L91.02 23.46C91.67 22.35 92.18 21.16 92.56 19.9L94.45 19.58L94.47 19.72C94.02 21.12 93.39 22.47 92.58 23.76L94.47 25.64C94.82 26 95.21 26.14 95.62 26.07L95.77 26.04L95.81 26.29ZM72.16 32.61L72.84 33.89L70.12 35.33C69.4 35.7 68.84 35.83 68.42 35.7C68 35.57 67.6 35.16 67.24 34.47L65.07 30.36C64.87 29.98 64.84 29.7 64.97 29.54C65.1 29.38 65.52 29.1 66.23 28.74L68.71 27.43C68.94 27.31 69.13 27.32 69.27 27.47C69.42 27.62 69.63 27.95 69.89 28.44L66.9 30.01L67.77 31.65L70.13 30.41L70.73 31.54L68.37 32.79L68.75 33.51C68.88 33.76 69.03 33.91 69.2 33.96C69.37 34.01 69.58 33.97 69.84 33.83L72.16 32.61ZM65.51 36.38C65.29 37.41 64.74 38.21 63.85 38.78L63.15 39.24C62.5 39.66 61.93 39.82 61.45 39.72C60.98 39.61 60.53 39.24 60.12 38.61L57.97 35.28L57.41 35.64L57.16 35.26C57.11 35.18 57.05 35.07 56.98 34.94C56.91 34.81 56.87 34.72 56.86 34.65C56.85 34.59 56.84 34.51 56.84 34.43C56.83 34.35 56.86 34.28 56.9 34.22C56.95 34.16 57.01 34.1 57.09 34.06L59.73 32.35C60.71 31.72 61.64 31.48 62.55 31.63C63.46 31.77 64.24 32.34 64.88 33.33C65.52 34.33 65.73 35.34 65.51 36.38ZM60.26 33.8L59.44 34.34L61.48 37.5C61.64 37.75 61.82 37.89 62.01 37.94C62.19 37.98 62.41 37.92 62.65 37.76L62.87 37.63C63.39 37.29 63.7 36.83 63.8 36.25C63.91 35.66 63.74 35.03 63.31 34.35C62.9 33.73 62.44 33.4 61.9 33.34C61.37 33.29 60.82 33.44 60.26 33.8ZM60.56 40.91L58.95 42.04L57.81 41.21L55.39 42.92L55.84 44.22L54.24 45.35C53.48 42.94 52.96 40.73 52.68 38.7C52.62 38.24 52.47 37.94 52.27 37.8C52.55 37.28 53.01 36.78 53.66 36.29L60.48 40.79L60.56 40.91ZM56.59 40.32L54.24 38.6C54.43 39.56 54.66 40.51 54.94 41.48L56.59 40.32ZM51.72 47.69C51.11 48.22 50.58 48.47 50.14 48.44C49.7 48.42 49.22 48.1 48.71 47.51L45.65 43.96C45.37 43.63 45.27 43.37 45.36 43.18C45.44 43 45.79 42.65 46.41 42.11L49.95 46.22C50.12 46.42 50.28 46.51 50.45 46.52C50.61 46.53 50.79 46.45 50.99 46.28L52.81 44.72L53.81 45.89L51.72 47.69ZM49.51 49.51L48.15 50.93L46.88 50.35L44.84 52.5L45.54 53.69L44.19 55.11C42.97 52.91 42.02 50.84 41.35 48.9C41.19 48.47 41 48.2 40.76 48.1C40.93 47.55 41.29 46.96 41.82 46.35L49.4 49.41L49.51 49.51ZM42.86 48.5C43.22 49.4 43.64 50.29 44.11 51.18L45.5 49.71L42.86 48.5ZM42.38 57.2L37.28 52.73C36.95 52.43 36.82 52.2 36.88 52C36.94 51.81 37.24 51.41 37.77 50.8L43.55 55.88L42.38 57.2ZM38.42 55.65C39.35 56.38 39.88 57.27 40.01 58.32C40.14 59.37 39.88 60.31 39.22 61.14L38.72 61.79C38.23 62.41 37.75 62.75 37.26 62.8C36.77 62.86 36.23 62.65 35.64 62.19L32.52 59.75L32.11 60.27L31.75 59.98C31.67 59.93 31.58 59.85 31.47 59.75C31.37 59.65 31.3 59.57 31.27 59.51C31.23 59.46 31.2 59.39 31.17 59.31C31.14 59.24 31.14 59.16 31.17 59.09C31.19 59.02 31.23 58.95 31.29 58.87L33.23 56.4C33.95 55.49 34.76 54.95 35.66 54.8C36.57 54.64 37.49 54.92 38.42 55.65ZM34.21 57.6L33.6 58.37L36.56 60.69C36.8 60.88 37.01 60.96 37.2 60.94C37.39 60.92 37.58 60.79 37.76 60.56L37.92 60.37C38.3 59.88 38.44 59.35 38.35 58.76C38.26 58.17 37.89 57.62 37.26 57.12C36.68 56.67 36.13 56.51 35.61 56.63C35.08 56.75 34.62 57.07 34.21 57.6ZM33.07 64.75L34.62 64.68C34.94 64.66 35.19 64.61 35.38 64.53C35.56 64.44 35.72 64.3 35.85 64.08L35.94 63.95L36.15 64.09C36.39 64.24 36.52 64.47 36.52 64.76C36.53 65.05 36.43 65.35 36.23 65.67C36.03 65.99 35.8 66.21 35.54 66.34C35.29 66.47 34.9 66.52 34.38 66.5L32.87 66.47L32.25 67.45L34.19 68.67L33.24 70.17L27.54 66.56C27.18 66.33 27.01 66.11 27.04 65.91C27.06 65.71 27.3 65.26 27.72 64.58L28.36 63.58C28.87 62.78 29.43 62.26 30.04 62.02C30.66 61.78 31.29 61.86 31.93 62.27C32.83 62.84 33.21 63.67 33.07 64.75ZM29.4 64.67L28.96 65.36L31.05 66.68L31.5 65.96C31.74 65.58 31.84 65.21 31.79 64.84C31.73 64.47 31.54 64.18 31.2 63.96C30.56 63.55 29.96 63.79 29.4 64.67ZM29.11 69.39C30.17 69.94 30.89 70.71 31.26 71.71C31.64 72.71 31.56 73.71 31.04 74.71C30.51 75.72 29.74 76.35 28.71 76.62C27.68 76.88 26.63 76.74 25.57 76.19C24.54 75.65 23.89 74.93 23.62 74.02C23.35 73.12 23.49 72.14 24.05 71.08C24.6 70.01 25.32 69.34 26.22 69.03C27.12 68.73 28.08 68.85 29.11 69.39ZM28.26 71.02C27.62 70.69 27.05 70.59 26.55 70.71C26.05 70.84 25.65 71.18 25.35 71.76C25.06 72.32 25.01 72.84 25.19 73.33C25.38 73.82 25.79 74.23 26.42 74.56C27.11 74.92 27.76 75.05 28.37 74.96C28.98 74.86 29.42 74.55 29.7 74.01C29.98 73.48 29.98 72.94 29.71 72.39C29.44 71.84 28.96 71.38 28.26 71.02ZM25.78 78.68C26.03 79.45 25.97 80.3 25.61 81.24L25.37 81.85L27.43 82.65L26.79 84.3L20.5 81.87C20.1 81.72 19.89 81.54 19.88 81.33C19.87 81.13 20.01 80.65 20.3 79.9L20.59 79.15C21.37 77.13 22.57 76.43 24.2 77.06C25 77.37 25.53 77.91 25.78 78.68ZM21.86 79.92L21.66 80.43L24.07 81.35L24.24 80.93C24.45 80.4 24.48 79.95 24.35 79.57C24.22 79.2 23.95 78.93 23.54 78.77C22.82 78.49 22.26 78.87 21.86 79.92ZM24.12 85.01C24.84 85.22 25.32 85.64 25.56 86.27C25.81 86.91 25.81 87.62 25.59 88.4C25.41 89 25.17 89.47 24.86 89.79C24.54 90.12 24.16 90.22 23.7 90.09L23.2 89.95C23.61 89.48 23.9 88.93 24.08 88.31C24.31 87.52 24.21 87.06 23.77 86.93C23.61 86.89 23.46 86.93 23.3 87.07C23.14 87.2 23 87.38 22.87 87.61C22.74 87.84 22.58 88.08 22.39 88.34C22.2 88.59 21.99 88.82 21.78 89.02C21.57 89.23 21.29 89.37 20.95 89.45C20.6 89.53 20.22 89.51 19.81 89.39C19.03 89.16 18.5 88.71 18.22 88.03C17.93 87.35 17.91 86.58 18.16 85.71C18.37 84.98 18.69 84.43 19.13 84.05C19.56 83.68 20.03 83.56 20.52 83.7C20.82 83.79 21.04 83.96 21.15 84.22C21.27 84.47 21.28 84.76 21.18 85.09L21.06 85.49L20.83 85.42C20.52 85.33 20.25 85.35 20.01 85.47C19.77 85.59 19.6 85.82 19.5 86.16C19.41 86.46 19.42 86.73 19.52 86.97C19.62 87.2 19.8 87.36 20.05 87.43C20.33 87.51 20.59 87.46 20.81 87.28C21.04 87.1 21.25 86.86 21.44 86.57C21.63 86.27 21.83 85.98 22.05 85.68C22.26 85.39 22.55 85.18 22.9 85.03C23.26 84.89 23.66 84.88 24.12 85.01ZM24.53 91.59L23.85 94.59C23.67 95.37 23.39 95.89 23.02 96.12C22.65 96.36 22.09 96.39 21.32 96.21L16.8 95.18C16.38 95.09 16.14 94.93 16.11 94.73C16.07 94.52 16.14 94.02 16.31 93.25L16.94 90.51C17 90.26 17.13 90.13 17.34 90.11C17.55 90.1 17.93 90.16 18.47 90.28L17.72 93.57L19.53 93.98L20.13 91.38L21.38 91.66L20.78 94.26L21.58 94.45C21.85 94.51 22.06 94.49 22.21 94.4C22.36 94.3 22.47 94.11 22.54 93.83L23.12 91.27L24.53 91.59ZM23.12 97.82L22.72 100.87C22.61 101.67 22.38 102.2 22.03 102.47C21.69 102.74 21.12 102.82 20.35 102.72L15.75 102.1C15.31 102.04 15.07 101.91 15.02 101.71C14.96 101.51 14.98 101.01 15.09 100.22L15.46 97.44C15.5 97.18 15.62 97.04 15.83 97.01C16.04 96.97 16.42 97 16.97 97.07L16.53 100.41L18.36 100.66L18.72 98.01L19.98 98.18L19.63 100.83L20.44 100.93C20.72 100.97 20.93 100.93 21.07 100.83C21.21 100.72 21.3 100.52 21.34 100.23L21.69 97.63L23.12 97.82ZM21.86 106.7C21.98 107.19 22.03 107.76 22 108.44L14.22 110.68L14.08 110.67L14.24 108.65L19.72 107.33C18.06 106.49 16.33 105.76 14.5 105.13L14.65 103.18C17.37 104.23 19.77 105.41 21.86 106.7ZM21.96 119.44L15.2 119.95C14.76 119.99 14.5 119.91 14.4 119.73C14.3 119.55 14.22 119.06 14.16 118.26L21.83 117.67L21.96 119.44ZM22.47 124.62L16.46 125.43L16.79 127.83L15.22 128.04L14.42 122.09C14.41 121.99 14.41 121.9 14.42 121.82C14.44 121.74 14.47 121.67 14.55 121.62C14.61 121.57 14.68 121.52 14.73 121.49C14.8 121.45 14.9 121.42 15.05 121.39C15.2 121.37 15.32 121.34 15.42 121.32C15.52 121.31 15.68 121.28 15.9 121.25L16.22 123.67L22.23 122.86L22.47 124.62ZM22.62 128.88C23.11 129.34 23.42 129.98 23.56 130.78C23.67 131.4 23.65 131.92 23.51 132.35C23.37 132.79 23.07 133.05 22.6 133.12L22.09 133.21C22.25 132.62 22.28 131.99 22.17 131.35C22.03 130.55 21.73 130.18 21.29 130.25C21.13 130.28 21 130.39 20.92 130.58C20.83 130.76 20.79 130.99 20.77 131.25C20.75 131.51 20.72 131.8 20.65 132.12C20.59 132.43 20.51 132.72 20.4 133C20.31 133.28 20.12 133.53 19.84 133.75C19.56 133.97 19.21 134.11 18.79 134.19C17.99 134.32 17.31 134.15 16.76 133.66C16.21 133.17 15.86 132.48 15.71 131.6C15.57 130.85 15.63 130.21 15.85 129.68C16.08 129.15 16.45 128.84 16.95 128.76C17.27 128.7 17.53 128.76 17.74 128.95C17.96 129.13 18.1 129.39 18.15 129.72L18.22 130.13L17.97 130.17C17.67 130.22 17.43 130.35 17.26 130.57C17.1 130.78 17.05 131.06 17.11 131.42C17.16 131.73 17.28 131.97 17.47 132.14C17.67 132.3 17.89 132.37 18.15 132.32C18.44 132.27 18.65 132.12 18.78 131.85C18.9 131.59 18.99 131.28 19.03 130.93C19.07 130.59 19.13 130.24 19.19 129.88C19.26 129.52 19.42 129.2 19.68 128.92C19.93 128.63 20.3 128.45 20.76 128.37C21.5 128.24 22.12 128.41 22.62 128.88ZM22.7 134.5L24.09 134.1L24.95 137.05C25.17 137.83 25.18 138.41 24.97 138.8C24.76 139.18 24.28 139.48 23.52 139.7L19.06 140.99C18.65 141.1 18.37 141.08 18.24 140.92C18.11 140.76 17.93 140.3 17.71 139.53L16.93 136.83C16.86 136.58 16.91 136.4 17.09 136.29C17.26 136.18 17.62 136.04 18.16 135.89L19.1 139.12L20.88 138.61L20.14 136.05L21.37 135.69L22.11 138.26L22.89 138.03C23.16 137.95 23.34 137.83 23.42 137.68C23.51 137.52 23.51 137.3 23.43 137.02L22.7 134.5ZM25.88 140.23L26.83 143.15C27.07 143.92 27.1 144.5 26.9 144.89C26.71 145.29 26.23 145.6 25.49 145.85L21.07 147.27C20.66 147.4 20.39 147.39 20.25 147.23C20.11 147.08 19.92 146.62 19.67 145.85L18.81 143.19C18.73 142.94 18.78 142.76 18.95 142.64C19.12 142.52 19.47 142.38 20.01 142.2L21.05 145.41L22.81 144.84L21.99 142.3L23.21 141.9L24.03 144.45L24.81 144.19C25.07 144.11 25.24 143.99 25.32 143.83C25.4 143.67 25.4 143.45 25.31 143.17L24.51 140.67L25.88 140.23ZM125.48 22.65C131.27 23.67 136.84 25.24 142.32 27.32L142.32 27.32C142.86 27.47 143.27 27.97 143.27 28.56C143.27 29.28 142.69 29.86 141.97 29.86C141.76 29.86 141.56 29.8 141.38 29.71C136.09 27.69 130.6 26.18 125.02 25.19C124.41 25.11 123.93 24.6 123.91 23.96C123.87 23.11 124.66 22.47 125.48 22.65ZM30.92 160.48C31.39 160.5 31.79 160.77 32 161.15C39.84 173.83 50.56 184.16 63.06 191.47C75.56 198.79 89.85 203.08 104.77 203.69C106.13 203.74 107.44 203.77 108.69 203.77C109.93 203.76 111.22 203.73 112.57 203.67C112.62 203.67 112.67 203.66 112.71 203.67C113.43 203.69 113.98 204.29 113.96 205.01C113.93 205.69 113.37 206.23 112.7 206.25C111.42 206.31 110.08 206.34 108.69 206.35C107.29 206.35 105.95 206.33 104.66 206.27C89.31 205.65 74.62 201.23 61.75 193.7C48.9 186.18 37.87 175.56 29.8 162.51C29.65 162.29 29.56 162.01 29.58 161.72C29.61 161.01 30.21 160.45 30.92 160.48ZM176.5 197.2C164.06 170.23 131.35 84.43 113.75 155.75C111.95 138.14 118.65 108.13 128.08 108.93C147.49 110.59 172.49 179.62 176.5 197.2Z" />
		<path id="Path 5" fill-rule="evenodd" class="shp0" d="M123.87 199.83C124.7 199.68 125.3 199.74 125.68 199.99C126.06 200.25 126.32 200.78 126.46 201.58L127.32 206.36C127.39 206.8 127.34 207.08 127.17 207.21C127 207.32 126.5 207.46 125.66 207.6L124.67 202.07C124.63 201.81 124.53 201.64 124.39 201.54C124.25 201.45 124.05 201.42 123.78 201.47L121.33 201.91L121.05 200.33L123.87 199.83ZM128.61 200.03C129.15 199.07 129.98 198.46 131.13 198.19C132.27 197.93 133.29 198.11 134.19 198.74C135.1 199.38 135.69 200.29 135.97 201.5C136.24 202.68 136.1 203.67 135.57 204.5C135.04 205.32 134.17 205.87 132.96 206.15C131.76 206.43 130.73 206.31 129.89 205.81C129.05 205.3 128.5 204.46 128.23 203.29C127.95 202.08 128.08 201 128.61 200.03ZM130.99 204.42C131.43 204.73 131.97 204.81 132.62 204.66C133.26 204.51 133.71 204.2 133.97 203.72C134.23 203.25 134.28 202.65 134.11 201.93C133.93 201.15 133.59 200.55 133.11 200.13C132.63 199.71 132.09 199.57 131.48 199.71C130.87 199.85 130.44 200.21 130.19 200.8C129.93 201.38 129.9 202.07 130.08 202.86C130.25 203.59 130.56 204.11 130.99 204.42ZM137.43 201.04C136.98 199.88 136.94 198.79 137.33 197.76C137.72 196.72 138.45 195.99 139.55 195.56C140.64 195.13 141.68 195.17 142.66 195.66C143.65 196.15 144.37 196.97 144.82 198.12C145.26 199.24 145.28 200.25 144.88 201.14C144.47 202.03 143.69 202.71 142.54 203.16C141.39 203.62 140.36 203.65 139.45 203.28C138.55 202.9 137.87 202.16 137.43 201.04ZM139.2 200.34C139.48 201.03 139.85 201.5 140.33 201.74C140.81 201.99 141.36 201.99 141.98 201.74C142.59 201.5 142.99 201.13 143.18 200.62C143.36 200.11 143.32 199.51 143.05 198.82C142.76 198.08 142.34 197.53 141.8 197.19C141.26 196.85 140.7 196.79 140.12 197.02C139.54 197.24 139.17 197.67 139 198.28C138.84 198.9 138.91 199.58 139.2 200.34ZM144.9 194.63C144.69 194.23 144.66 193.95 144.79 193.79C144.92 193.62 145.36 193.35 146.1 192.97L147.48 195.65L150.41 194.15L149.06 191.51L150.69 190.68L153.9 196.94C154.1 197.34 154.14 197.62 154.01 197.79C153.87 197.95 153.43 198.22 152.69 198.6L151.15 195.6L148.22 197.1L149.74 200.06L148.1 200.9L144.9 194.63ZM153.02 191.73L152.75 191.29C152.49 190.89 152.5 190.44 152.8 189.93C153.09 189.43 153.57 188.97 154.22 188.56C155.3 187.87 156.34 187.65 157.35 187.92C158.37 188.19 159.23 188.88 159.95 190.01C160.58 190.99 160.78 191.97 160.54 192.96C160.31 193.94 159.67 194.76 158.63 195.42C157.91 195.89 157.21 196.12 156.53 196.1C155.84 196.09 155.34 195.83 155.01 195.31C154.83 195.02 154.77 194.73 154.85 194.44C154.93 194.16 155.13 193.92 155.45 193.71L155.78 193.5L155.93 193.73C156.16 194.09 156.43 194.31 156.77 194.38C157.1 194.46 157.46 194.38 157.85 194.13C158.37 193.8 158.67 193.35 158.76 192.77C158.86 192.19 158.72 191.62 158.35 191.04C157.89 190.33 157.33 189.89 156.67 189.74C156.01 189.58 155.31 189.74 154.57 190.21C153.99 190.59 153.47 191.09 153.02 191.73ZM159.57 185.8C159.79 185.13 160.24 184.55 160.93 184.06C161.45 183.69 161.95 183.47 162.42 183.4C162.88 183.34 163.26 183.51 163.54 183.91L163.86 184.35C163.23 184.46 162.64 184.72 162.09 185.11C161.4 185.6 161.18 186.04 161.45 186.42C161.55 186.56 161.71 186.63 161.92 186.62C162.13 186.62 162.37 186.56 162.62 186.46C162.87 186.35 163.16 186.26 163.48 186.18C163.8 186.1 164.11 186.04 164.42 186.01C164.72 185.98 165.04 186.04 165.37 186.21C165.69 186.36 165.99 186.63 166.25 186.99C166.74 187.67 166.87 188.38 166.67 189.12C166.46 189.85 165.98 190.49 165.22 191.03C164.58 191.49 163.96 191.73 163.36 191.76C162.76 191.78 162.31 191.58 162.01 191.14C161.82 190.88 161.76 190.6 161.83 190.32C161.9 190.04 162.08 189.79 162.36 189.59L162.72 189.34L162.86 189.55C163.06 189.82 163.29 189.98 163.56 190.04C163.83 190.1 164.12 190.02 164.42 189.81C164.68 189.62 164.85 189.39 164.92 189.14C164.99 188.88 164.95 188.64 164.79 188.42C164.62 188.17 164.38 188.05 164.08 188.05C163.77 188.04 163.45 188.11 163.1 188.22C162.76 188.34 162.41 188.45 162.05 188.55C161.68 188.65 161.31 188.64 160.93 188.53C160.55 188.42 160.22 188.16 159.93 187.76C159.48 187.13 159.36 186.47 159.57 185.8ZM179.83 169.35C179.19 168.9 178.86 168.32 178.84 167.62C178.83 166.92 179.06 166.22 179.55 165.54C179.93 165.01 180.33 164.63 180.74 164.42C181.16 164.21 181.57 164.24 181.97 164.53L182.42 164.84C181.85 165.16 181.38 165.59 181 166.14C180.5 166.83 180.44 167.31 180.83 167.59C180.96 167.69 181.13 167.7 181.33 167.62C181.53 167.55 181.73 167.42 181.94 167.24C182.14 167.06 182.38 166.88 182.66 166.7C182.93 166.51 183.21 166.36 183.49 166.23C183.76 166.1 184.09 166.06 184.45 166.1C184.81 166.14 185.18 166.29 185.54 166.55C186.23 167.04 186.59 167.66 186.64 168.42C186.68 169.19 186.43 169.95 185.89 170.71C185.43 171.35 184.93 171.78 184.38 172C183.82 172.22 183.33 172.18 182.9 171.87C182.63 171.68 182.48 171.44 182.46 171.15C182.43 170.86 182.52 170.57 182.73 170.28L182.98 169.93L183.18 170.08C183.45 170.27 183.72 170.35 184 170.31C184.28 170.28 184.52 170.11 184.74 169.81C184.93 169.54 185.01 169.28 184.99 169.01C184.98 168.75 184.85 168.54 184.64 168.38C184.39 168.21 184.12 168.17 183.84 168.26C183.55 168.36 183.26 168.53 182.98 168.75C182.69 168.97 182.39 169.19 182.08 169.4C181.77 169.62 181.42 169.73 181.02 169.75C180.63 169.77 180.23 169.64 179.83 169.35ZM183.86 159.38L189.15 162.78L190.5 160.67L191.88 161.54L188.52 166.79C188.46 166.87 188.4 166.95 188.34 167C188.28 167.05 188.2 167.08 188.11 167.07C188.02 167.06 187.94 167.06 187.87 167.04C187.8 167.04 187.7 166.99 187.56 166.92C187.43 166.84 187.31 166.77 187.22 166.72C187.13 166.66 186.99 166.58 186.79 166.45L188.15 164.33L182.86 160.94L183.86 159.38ZM190.55 158.99C189.56 158.49 189.09 157.67 189.14 156.54L187.55 156.76C187.22 156.81 186.96 156.88 186.78 156.99C186.6 157.09 186.45 157.26 186.33 157.49L186.26 157.63L186.03 157.52C185.76 157.38 185.6 157.16 185.58 156.86C185.55 156.56 185.62 156.24 185.79 155.89C185.97 155.54 186.19 155.29 186.44 155.13C186.69 154.97 187.09 154.88 187.62 154.85L189.18 154.74L189.73 153.68L187.62 152.6L188.45 150.97L194.67 154.15C195.07 154.36 195.26 154.56 195.26 154.78C195.25 154.99 195.05 155.46 194.67 156.21L194.1 157.3C193.66 158.17 193.13 158.76 192.52 159.07C191.91 159.37 191.25 159.35 190.55 158.99ZM191.14 157.18C191.84 157.54 192.44 157.24 192.93 156.28L193.32 155.52L191.04 154.35L190.64 155.14C190.43 155.56 190.37 155.96 190.45 156.33C190.54 156.71 190.77 156.99 191.14 157.18ZM190.48 149.23C189.99 148.24 189.96 147.21 190.39 146.12C190.82 145.03 191.55 144.29 192.59 143.9C193.62 143.52 194.71 143.55 195.86 144.01C196.98 144.45 197.73 145.12 198.1 146.03C198.48 146.93 198.44 147.96 197.99 149.11C197.53 150.26 196.86 151.04 195.97 151.45C195.08 151.86 194.07 151.84 192.95 151.4C191.8 150.94 190.97 150.22 190.48 149.23ZM195.44 149.76C195.95 149.57 196.32 149.17 196.57 148.55C196.81 147.94 196.81 147.4 196.56 146.91C196.32 146.43 195.85 146.05 195.16 145.78C194.42 145.48 193.73 145.42 193.11 145.58C192.5 145.74 192.07 146.11 191.84 146.69C191.61 147.27 191.67 147.83 192.01 148.37C192.34 148.9 192.89 149.33 193.65 149.62C194.34 149.9 194.94 149.94 195.44 149.76ZM197.3 143.06C196.44 142.81 195.84 142.31 195.51 141.54C195.18 140.78 195.16 139.89 195.44 138.89L195.63 138.22L193.43 137.6L193.93 135.84L200.65 137.74C201.08 137.87 201.31 138.03 201.34 138.24C201.37 138.45 201.27 138.96 201.05 139.76L200.82 140.57C200.21 142.72 199.03 143.55 197.3 143.06ZM197.82 141.24C198.58 141.46 199.12 141.01 199.43 139.89L199.59 139.35L197.01 138.62L196.88 139.08C196.72 139.64 196.73 140.11 196.9 140.48C197.07 140.86 197.37 141.11 197.82 141.24ZM194.96 133.7C194.68 133.06 194.63 132.33 194.82 131.5C194.97 130.87 195.19 130.38 195.5 130.02C195.8 129.66 196.2 129.54 196.68 129.65L197.2 129.77C196.81 130.28 196.54 130.85 196.38 131.51C196.19 132.34 196.32 132.81 196.78 132.91C196.95 132.95 197.11 132.9 197.26 132.76C197.42 132.61 197.56 132.42 197.68 132.17C197.8 131.92 197.95 131.66 198.14 131.39C198.32 131.12 198.51 130.87 198.72 130.64C198.93 130.42 199.21 130.26 199.56 130.15C199.91 130.06 200.31 130.06 200.75 130.16C201.56 130.35 202.14 130.78 202.47 131.47C202.8 132.16 202.87 132.96 202.66 133.87C202.48 134.63 202.18 135.22 201.75 135.64C201.32 136.05 200.84 136.2 200.33 136.08C200.01 136.01 199.78 135.84 199.65 135.58C199.51 135.33 199.49 135.03 199.57 134.68L199.66 134.26L199.91 134.32C200.23 134.39 200.51 134.36 200.76 134.22C201 134.08 201.16 133.84 201.24 133.48C201.32 133.16 201.3 132.88 201.18 132.64C201.06 132.4 200.87 132.26 200.6 132.19C200.31 132.13 200.05 132.19 199.82 132.39C199.59 132.59 199.39 132.85 199.21 133.17C199.03 133.48 198.84 133.79 198.64 134.11C198.43 134.43 198.15 134.67 197.79 134.84C197.43 135.01 197.01 135.04 196.53 134.92C195.77 134.75 195.25 134.34 194.96 133.7ZM197.52 125.17C197.04 125.13 196.69 124.85 196.47 124.31C196.25 123.77 196.17 123.12 196.22 122.35C196.32 121.07 196.78 120.11 197.6 119.46C198.42 118.81 199.5 118.54 200.83 118.64C201.99 118.73 202.9 119.16 203.54 119.94C204.18 120.72 204.46 121.73 204.37 122.96C204.3 123.81 204.06 124.51 203.64 125.04C203.22 125.58 202.7 125.83 202.09 125.78C201.75 125.75 201.49 125.62 201.31 125.38C201.13 125.15 201.05 124.84 201.08 124.47L201.11 124.08L201.38 124.1C201.81 124.13 202.15 124.03 202.41 123.82C202.68 123.6 202.83 123.26 202.86 122.8C202.91 122.19 202.73 121.67 202.33 121.25C201.92 120.83 201.38 120.59 200.69 120.54C199.84 120.48 199.17 120.66 198.64 121.1C198.12 121.54 197.83 122.19 197.76 123.07C197.71 123.76 197.8 124.47 198.04 125.21L197.52 125.17ZM196.74 115.24L203.77 115.42C204.22 115.43 204.49 115.53 204.57 115.72C204.65 115.92 204.68 116.44 204.66 117.27L196.69 117.07L196.74 115.24ZM196.73 111.69L196.68 109.84L202.96 109.68L202.9 107.17L204.54 107.13L204.69 113.35C204.7 113.46 204.68 113.55 204.67 113.63C204.64 113.71 204.59 113.77 204.51 113.81C204.44 113.87 204.37 113.9 204.3 113.93C204.24 113.96 204.13 113.98 203.97 114C203.82 114.01 203.68 114.02 203.58 114.03C203.47 114.03 203.31 114.04 203.08 114.04L203.01 111.53L196.73 111.69ZM196.47 105.87L197.78 105.24L197.4 102.18L195.98 101.97L195.72 99.95C198.3 100.42 200.58 101.02 202.57 101.75C203.02 101.91 203.36 101.93 203.59 101.81C203.93 102.31 204.17 102.98 204.31 103.81L196.88 107.88L196.73 107.9L196.47 105.87ZM201.9 103.23C200.94 102.93 199.95 102.68 198.93 102.47L199.19 104.55L201.9 103.23ZM196.3 98.36C195.59 97.85 195.12 97.1 194.89 96.1C194.67 95.12 194.77 94.25 195.22 93.49C195.66 92.74 196.42 92.24 197.48 91.99L201.09 91.16C201.54 91.06 201.82 91.09 201.95 91.26C202.07 91.43 202.23 91.92 202.42 92.73L198.09 93.73C196.79 94.03 196.26 94.7 196.5 95.74C196.75 96.81 197.52 97.2 198.83 96.9L203.1 95.91L203.51 97.69L199.03 98.73C197.92 98.99 197 98.86 196.3 98.36ZM197.99 90.4C197.14 90.64 196.32 90.67 195.54 90.48C194.76 90.29 194.12 89.92 193.61 89.35C193.5 89.29 193.4 89.28 193.29 89.31C193.08 89.37 192.99 89.6 193.02 90.01C193.05 90.42 193.16 90.97 193.35 91.68C192.83 91.83 192.43 91.87 192.17 91.81C191.9 91.75 191.72 91.57 191.64 91.26C191.53 90.9 191.46 90.56 191.41 90.21C191.36 89.88 191.34 89.54 191.35 89.22C191.36 88.9 191.42 88.63 191.54 88.4C191.65 88.18 191.81 88.04 192.03 87.98C192.32 87.89 192.6 87.96 192.9 88.18C192.83 87.99 192.78 87.85 192.75 87.76C192.43 86.63 192.57 85.6 193.15 84.67C193.74 83.73 194.63 83.1 195.82 82.76C196.98 82.43 197.98 82.51 198.83 83C199.68 83.5 200.27 84.34 200.6 85.53C200.94 86.72 200.88 87.75 200.42 88.61C199.96 89.48 199.15 90.07 197.99 90.4ZM197.47 88.57C198.18 88.36 198.69 88.04 198.98 87.58C199.26 87.13 199.32 86.58 199.14 85.95C198.96 85.32 198.63 84.88 198.14 84.65C197.65 84.41 197.05 84.39 196.34 84.59C195.57 84.81 194.98 85.17 194.59 85.68C194.2 86.18 194.09 86.73 194.26 87.33C194.43 87.93 194.81 88.34 195.4 88.57C196 88.79 196.68 88.79 197.47 88.57ZM190.8 81.87L191.91 80.93L190.78 78.07L189.35 78.21L188.61 76.32C191.22 76.14 193.58 76.16 195.69 76.38C196.16 76.42 196.5 76.35 196.69 76.18C197.15 76.58 197.54 77.17 197.88 77.95L191.68 83.72L191.54 83.77L190.8 81.87ZM195.4 77.97C194.4 77.92 193.38 77.93 192.34 77.97L193.1 79.92L195.4 77.97ZM187.05 72.78C186.58 72.48 186.16 72.05 185.78 71.5L188.39 65.79L184.09 68.27L183.2 66.71L189.78 62.92C190.24 63.21 190.65 63.64 191.04 64.21L188.5 69.88L192.75 67.43L193.64 68.99L187.05 72.78ZM181.44 64.2L182.29 63.02L180.51 60.51L179.16 60.99L177.99 59.34C180.47 58.53 182.76 57.98 184.87 57.69C185.34 57.61 185.65 57.47 185.8 57.25C186.33 57.54 186.85 58.01 187.37 58.68L182.75 65.78L182.62 65.86L181.44 64.2ZM184.98 59.3C183.99 59.5 183 59.75 182 60.04L183.21 61.75L184.98 59.3ZM177.28 58.58L176.08 57.19L181.4 52.59C181.74 52.29 182 52.19 182.19 52.28C182.38 52.37 182.76 52.73 183.3 53.36L177.28 58.58ZM173.82 54.83L175.01 48.67L171.42 52.09L170.18 50.79L175.68 45.54C176.18 45.72 176.69 46.04 177.2 46.5L176.08 52.61L179.63 49.22L180.87 50.52L175.35 55.78C174.83 55.6 174.32 55.28 173.82 54.83ZM172.01 46.75C171.2 47.69 170.25 48.22 169.16 48.36C168.06 48.5 167.07 48.18 166.18 47.41C165.3 46.65 164.84 45.71 164.83 44.61C164.81 43.5 165.2 42.49 166.01 41.55C166.8 40.64 167.68 40.16 168.66 40.1C169.64 40.05 170.6 40.43 171.53 41.24C172.47 42.05 172.98 42.95 173.07 43.92C173.16 44.9 172.8 45.84 172.01 46.75ZM171.3 43.85C171.29 43.32 171.04 42.83 170.53 42.4C170.04 41.96 169.52 41.79 168.98 41.86C168.45 41.93 167.93 42.24 167.45 42.8C166.93 43.41 166.64 44.03 166.58 44.67C166.53 45.3 166.74 45.83 167.21 46.23C167.68 46.64 168.23 46.77 168.84 46.63C169.47 46.5 170.04 46.12 170.58 45.5C171.06 44.94 171.3 44.39 171.3 43.85ZM159.4 41.99L163.04 36.87L161 35.42L161.95 34.08L167.02 37.69C167.1 37.75 167.18 37.82 167.22 37.88C167.27 37.95 167.29 38.02 167.28 38.11C167.28 38.2 167.26 38.28 167.25 38.35C167.24 38.42 167.18 38.52 167.1 38.66C167.02 38.79 166.95 38.9 166.89 38.99C166.83 39.08 166.74 39.21 166.6 39.4L164.55 37.94L160.91 43.06L159.4 41.99ZM157.68 37.94C157.29 38.62 156.75 39 156.05 39.08C155.35 39.17 154.64 39 153.9 38.58C153.34 38.26 152.93 37.9 152.68 37.5C152.43 37.1 152.42 36.69 152.67 36.26L152.93 35.79C153.31 36.32 153.78 36.75 154.36 37.09C155.1 37.51 155.59 37.52 155.82 37.12C155.91 36.97 155.91 36.8 155.81 36.61C155.72 36.42 155.57 36.23 155.37 36.04C155.17 35.85 154.97 35.63 154.76 35.38C154.55 35.12 154.37 34.86 154.22 34.6C154.06 34.33 153.99 34.02 153.99 33.65C154 33.29 154.11 32.91 154.34 32.52C154.76 31.79 155.34 31.37 156.09 31.25C156.85 31.13 157.63 31.31 158.44 31.77C159.13 32.17 159.6 32.63 159.88 33.16C160.15 33.69 160.15 34.18 159.88 34.64C159.72 34.93 159.5 35.1 159.21 35.15C158.93 35.2 158.63 35.14 158.32 34.96L157.95 34.75L158.08 34.53C158.24 34.24 158.29 33.96 158.23 33.69C158.17 33.42 157.98 33.19 157.66 33.01C157.38 32.85 157.1 32.79 156.84 32.83C156.58 32.87 156.38 33.01 156.25 33.25C156.09 33.51 156.08 33.78 156.21 34.05C156.34 34.33 156.52 34.6 156.77 34.86C157.02 35.12 157.27 35.4 157.51 35.69C157.75 35.98 157.9 36.32 157.96 36.71C158.01 37.1 157.92 37.51 157.68 37.94ZM150.95 36.74L148.11 35.29C147.37 34.91 146.92 34.5 146.78 34.07C146.64 33.64 146.75 33.06 147.12 32.34L149.31 28.06C149.52 27.66 149.73 27.46 149.95 27.48C150.17 27.5 150.64 27.69 151.38 28.07L153.96 29.39C154.2 29.51 154.3 29.68 154.26 29.9C154.22 30.11 154.07 30.48 153.81 31L150.7 29.4L149.82 31.11L152.29 32.37L151.68 33.55L149.22 32.29L148.83 33.05C148.7 33.3 148.66 33.52 148.72 33.7C148.78 33.87 148.94 34.03 149.21 34.17L151.63 35.41L150.95 36.74Z" />
	</g>
</svg>